{"title":"The Voice - Australia S01 E15 - pKcMvA","uid":7361105,"size":813904992,"categoryP":"video","categoryS":"tv_shows","magnet":"?xt=urn:btih:0754f69b8ecaae5137ce56973eb09b254f59ac9d&amp;dn=The+Voice+-+Australia+S01+E15+-+pKcMvA&amp;tr=udp%3A%2F%2Ftracker.openbittorrent.com%3A80&amp;tr=udp%3A%2F%2Fopen.demonii.com%3A1337&amp;tr=udp%3A%2F%2Ftracker.coppersurfer.tk%3A6969&amp;tr=udp%3A%2F%2Fexodus.desync.com%3A6969","seeders":0,"leechers":1,"uploader":"PKCMVA","files":1,"time":1339960831,"description":"The Voice - Australia S01 E15 - pKcMvA\n\nThe Live Finale, Part 1\n\nFormat                                   : AVI\n\nFormat/Info                              : Audio Video Interleave\nFile size                                : 776 MiB\nDuration                                 : 1h 32mn\nOverall bit rate                         : 1 170 Kbps\nWriting library                          : MPlayer\n\nVideo\n\nFormat                                   : MPEG-4 Visual\nFormat profile                           : Advanced Simple@L5\nFormat settings, BVOP                    : 2\nFormat settings, QPel                    : No\nFormat settings, GMC                     : No warppoints\nFormat settings, Matrix                  : Default (H.263)\nMuxing mode                              : Packed bitstream\nCodec ID                                 : XVID\nCodec ID/Hint                            : XviD\nDuration                                 : 1h 32mn\nBit rate                                 : 973 Kbps\nWidth                                    : 624 pixels\nHeight                                   : 352 pixels\nDisplay aspect ratio                     : 16:9\nFrame rate                               : 25.000 fps\nColor space                              : YUV\nChroma subsampling                       : 4:2:0\nBit depth                                : 8 bits\nScan type                                : Progressive\nBits/(Pixel*Frame)                       : 0.177\nStream size                              : 645 MiB (83%)\nWriting library                          : XviD 64\n\nAudio\n\nFormat                                   : MPEG Audio\nFormat version                           : Version 1\nFormat profile                           : Layer 3\nCodec ID                                 : 55\nCodec ID/Hint                            : MP3\nDuration                                 : 1h 32mn\nBit rate mode                            : Constant\nBit rate                                 : 192 Kbps\nChannel(s)                               : 2 channels\nSampling rate                            : 44.1 KHz\nStream size                              : 127 MiB (16%)\nAlignment                                : Split accross interleaves\nInterleave, duration                     : 500 ms (12.50 video frames)\nInterleave, preload duration             : 500 ms","torrent":{"xt":"urn:btih:0754f69b8ecaae5137ce56973eb09b254f59ac9d","amp;dn":"The+Voice+-+Australia+S01+E15+-+pKcMvA","amp;tr":["udp%3A%2F%2Ftracker.openbittorrent.com%3A80","udp%3A%2F%2Fopen.demonii.com%3A1337","udp%3A%2F%2Ftracker.coppersurfer.tk%3A6969","udp%3A%2F%2Fexodus.desync.com%3A6969"],"infoHash":"0754f69b8ecaae5137ce56973eb09b254f59ac9d","infoHashBuffer":{"type":"Buffer","data":[7,84,246,155,142,202,174,81,55,206,86,151,62,176,155,37,79,89,172,157]},"announce":[],"urlList":[]}}